<mxfile host="app.diagrams.net" modified="2024-04-29T09:36:28.900Z" agent="Mozilla/5.0 (Windows NT 10.0; Win64; x64) AppleWebKit/537.36 (KHTML, like Gecko) Chrome/124.0.0.0 Safari/537.36" etag="NKfzjbbCZeDkIYRCtNIr" version="24.3.1" type="device">
  <diagram id="C5RBs43oDa-KdzZeNtuy" name="Page-1">
    <mxGraphModel dx="1434" dy="822" grid="1" gridSize="10" guides="1" tooltips="1" connect="1" arrows="1" fold="1" page="1" pageScale="1" pageWidth="827" pageHeight="1169" math="0" shadow="0">
      <root>
        <mxCell id="WIyWlLk6GJQsqaUBKTNV-0" />
        <mxCell id="WIyWlLk6GJQsqaUBKTNV-1" parent="WIyWlLk6GJQsqaUBKTNV-0" />
        <mxCell id="5Ex3gswjyF0wNmUI7whT-4" value="" style="edgeStyle=none;curved=1;rounded=0;orthogonalLoop=1;jettySize=auto;html=1;fontSize=12;startSize=8;endSize=8;fontFamily=Lucida Console;fontStyle=1" edge="1" parent="WIyWlLk6GJQsqaUBKTNV-1" source="5Ex3gswjyF0wNmUI7whT-0" target="5Ex3gswjyF0wNmUI7whT-3">
          <mxGeometry relative="1" as="geometry" />
        </mxCell>
        <mxCell id="5Ex3gswjyF0wNmUI7whT-0" value="receive Emby media data" style="rounded=1;whiteSpace=wrap;html=1;fontFamily=Lucida Console;fontStyle=1" vertex="1" parent="WIyWlLk6GJQsqaUBKTNV-1">
          <mxGeometry x="215" y="160" width="150" height="60" as="geometry" />
        </mxCell>
        <mxCell id="5Ex3gswjyF0wNmUI7whT-6" value="" style="edgeStyle=none;curved=1;rounded=0;orthogonalLoop=1;jettySize=auto;html=1;fontSize=12;startSize=8;endSize=8;fontFamily=Lucida Console;fontStyle=1" edge="1" parent="WIyWlLk6GJQsqaUBKTNV-1" source="5Ex3gswjyF0wNmUI7whT-3" target="5Ex3gswjyF0wNmUI7whT-5">
          <mxGeometry relative="1" as="geometry" />
        </mxCell>
        <mxCell id="5Ex3gswjyF0wNmUI7whT-8" value="" style="edgeStyle=none;curved=1;rounded=0;orthogonalLoop=1;jettySize=auto;html=1;fontSize=12;startSize=8;endSize=8;fontFamily=Lucida Console;fontStyle=1" edge="1" parent="WIyWlLk6GJQsqaUBKTNV-1" source="5Ex3gswjyF0wNmUI7whT-3" target="5Ex3gswjyF0wNmUI7whT-7">
          <mxGeometry relative="1" as="geometry" />
        </mxCell>
        <mxCell id="5Ex3gswjyF0wNmUI7whT-3" value="Item[Type]" style="rhombus;whiteSpace=wrap;html=1;rounded=0;fontFamily=Lucida Console;fontStyle=1" vertex="1" parent="WIyWlLk6GJQsqaUBKTNV-1">
          <mxGeometry x="230" y="250" width="120" height="80" as="geometry" />
        </mxCell>
        <mxCell id="5Ex3gswjyF0wNmUI7whT-26" style="edgeStyle=orthogonalEdgeStyle;rounded=0;orthogonalLoop=1;jettySize=auto;html=1;exitX=0.5;exitY=1;exitDx=0;exitDy=0;entryX=0.5;entryY=0;entryDx=0;entryDy=0;fontSize=12;startSize=8;endSize=8;fontFamily=Lucida Console;fontStyle=1" edge="1" parent="WIyWlLk6GJQsqaUBKTNV-1" source="5Ex3gswjyF0wNmUI7whT-5" target="5Ex3gswjyF0wNmUI7whT-13">
          <mxGeometry relative="1" as="geometry" />
        </mxCell>
        <mxCell id="5Ex3gswjyF0wNmUI7whT-5" value="Movie" style="whiteSpace=wrap;html=1;rounded=1;fontFamily=Lucida Console;fontStyle=1" vertex="1" parent="WIyWlLk6GJQsqaUBKTNV-1">
          <mxGeometry x="70" y="260" width="120" height="60" as="geometry" />
        </mxCell>
        <mxCell id="5Ex3gswjyF0wNmUI7whT-27" style="edgeStyle=orthogonalEdgeStyle;rounded=0;orthogonalLoop=1;jettySize=auto;html=1;exitX=0.5;exitY=1;exitDx=0;exitDy=0;entryX=0.5;entryY=0;entryDx=0;entryDy=0;fontSize=12;startSize=8;endSize=8;fontFamily=Lucida Console;fontStyle=1" edge="1" parent="WIyWlLk6GJQsqaUBKTNV-1" source="5Ex3gswjyF0wNmUI7whT-7" target="5Ex3gswjyF0wNmUI7whT-13">
          <mxGeometry relative="1" as="geometry" />
        </mxCell>
        <mxCell id="5Ex3gswjyF0wNmUI7whT-7" value="Episode" style="whiteSpace=wrap;html=1;rounded=1;fontFamily=Lucida Console;fontStyle=1" vertex="1" parent="WIyWlLk6GJQsqaUBKTNV-1">
          <mxGeometry x="390" y="260" width="120" height="60" as="geometry" />
        </mxCell>
        <mxCell id="5Ex3gswjyF0wNmUI7whT-16" value="" style="edgeStyle=none;curved=1;rounded=0;orthogonalLoop=1;jettySize=auto;html=1;fontSize=12;startSize=8;endSize=8;fontFamily=Lucida Console;fontStyle=1" edge="1" parent="WIyWlLk6GJQsqaUBKTNV-1" source="5Ex3gswjyF0wNmUI7whT-13" target="5Ex3gswjyF0wNmUI7whT-15">
          <mxGeometry relative="1" as="geometry" />
        </mxCell>
        <mxCell id="5Ex3gswjyF0wNmUI7whT-30" value="YES" style="edgeLabel;html=1;align=center;verticalAlign=middle;resizable=0;points=[];fontSize=12;fontFamily=Lucida Console;fontStyle=1" vertex="1" connectable="0" parent="5Ex3gswjyF0wNmUI7whT-16">
          <mxGeometry x="-0.2" y="-2" relative="1" as="geometry">
            <mxPoint as="offset" />
          </mxGeometry>
        </mxCell>
        <mxCell id="5Ex3gswjyF0wNmUI7whT-18" value="" style="edgeStyle=none;curved=1;rounded=0;orthogonalLoop=1;jettySize=auto;html=1;fontSize=12;startSize=8;endSize=8;fontFamily=Lucida Console;fontStyle=1" edge="1" parent="WIyWlLk6GJQsqaUBKTNV-1" source="5Ex3gswjyF0wNmUI7whT-13" target="5Ex3gswjyF0wNmUI7whT-17">
          <mxGeometry relative="1" as="geometry" />
        </mxCell>
        <mxCell id="5Ex3gswjyF0wNmUI7whT-29" value="NO" style="edgeLabel;html=1;align=center;verticalAlign=middle;resizable=0;points=[];fontSize=12;fontFamily=Lucida Console;fontStyle=1" vertex="1" connectable="0" parent="5Ex3gswjyF0wNmUI7whT-18">
          <mxGeometry x="-0.3333" y="1" relative="1" as="geometry">
            <mxPoint as="offset" />
          </mxGeometry>
        </mxCell>
        <mxCell id="5Ex3gswjyF0wNmUI7whT-13" value="Has TMDB ID ?" style="rhombus;whiteSpace=wrap;html=1;rounded=0;fontFamily=Lucida Console;fontStyle=1" vertex="1" parent="WIyWlLk6GJQsqaUBKTNV-1">
          <mxGeometry x="70" y="470" width="120" height="80" as="geometry" />
        </mxCell>
        <mxCell id="5Ex3gswjyF0wNmUI7whT-42" value="" style="edgeStyle=none;curved=1;rounded=0;orthogonalLoop=1;jettySize=auto;html=1;fontSize=12;startSize=8;endSize=8;fontFamily=Lucida Console;fontStyle=1" edge="1" parent="WIyWlLk6GJQsqaUBKTNV-1" source="5Ex3gswjyF0wNmUI7whT-15" target="5Ex3gswjyF0wNmUI7whT-41">
          <mxGeometry relative="1" as="geometry" />
        </mxCell>
        <mxCell id="5Ex3gswjyF0wNmUI7whT-15" value="query from tmdb" style="whiteSpace=wrap;html=1;rounded=1;fontFamily=Lucida Console;fontStyle=1" vertex="1" parent="WIyWlLk6GJQsqaUBKTNV-1">
          <mxGeometry x="70" y="880" width="120" height="60" as="geometry" />
        </mxCell>
        <mxCell id="5Ex3gswjyF0wNmUI7whT-20" value="" style="edgeStyle=none;curved=1;rounded=0;orthogonalLoop=1;jettySize=auto;html=1;fontSize=12;startSize=8;endSize=8;fontFamily=Lucida Console;fontStyle=1" edge="1" parent="WIyWlLk6GJQsqaUBKTNV-1" source="5Ex3gswjyF0wNmUI7whT-17" target="5Ex3gswjyF0wNmUI7whT-19">
          <mxGeometry relative="1" as="geometry" />
        </mxCell>
        <mxCell id="5Ex3gswjyF0wNmUI7whT-17" value="Search from TMDB" style="whiteSpace=wrap;html=1;rounded=1;fontFamily=Lucida Console;fontStyle=1" vertex="1" parent="WIyWlLk6GJQsqaUBKTNV-1">
          <mxGeometry x="320" y="480" width="140" height="60" as="geometry" />
        </mxCell>
        <mxCell id="5Ex3gswjyF0wNmUI7whT-34" value="" style="edgeStyle=none;curved=1;rounded=0;orthogonalLoop=1;jettySize=auto;html=1;fontSize=12;startSize=8;endSize=8;fontFamily=Lucida Console;fontStyle=1" edge="1" parent="WIyWlLk6GJQsqaUBKTNV-1" source="5Ex3gswjyF0wNmUI7whT-19" target="5Ex3gswjyF0wNmUI7whT-33">
          <mxGeometry relative="1" as="geometry" />
        </mxCell>
        <mxCell id="5Ex3gswjyF0wNmUI7whT-19" value="Get external IDs from TMDB(tvdb_id, imdb_id" style="whiteSpace=wrap;html=1;rounded=1;fontFamily=Lucida Console;fontStyle=1" vertex="1" parent="WIyWlLk6GJQsqaUBKTNV-1">
          <mxGeometry x="320" y="590" width="140" height="60" as="geometry" />
        </mxCell>
        <mxCell id="5Ex3gswjyF0wNmUI7whT-25" style="edgeStyle=none;curved=1;rounded=0;orthogonalLoop=1;jettySize=auto;html=1;exitX=0;exitY=0.5;exitDx=0;exitDy=0;fontSize=12;startSize=8;endSize=8;fontFamily=Lucida Console;fontStyle=1" edge="1" parent="WIyWlLk6GJQsqaUBKTNV-1" source="5Ex3gswjyF0wNmUI7whT-23" target="5Ex3gswjyF0wNmUI7whT-15">
          <mxGeometry relative="1" as="geometry" />
        </mxCell>
        <mxCell id="5Ex3gswjyF0wNmUI7whT-23" value="Compare and Select correct TMDB ID" style="whiteSpace=wrap;html=1;rounded=1;fontFamily=Lucida Console;fontStyle=1" vertex="1" parent="WIyWlLk6GJQsqaUBKTNV-1">
          <mxGeometry x="320" y="880" width="140" height="60" as="geometry" />
        </mxCell>
        <mxCell id="5Ex3gswjyF0wNmUI7whT-36" value="" style="edgeStyle=none;curved=1;rounded=0;orthogonalLoop=1;jettySize=auto;html=1;fontSize=12;startSize=8;endSize=8;fontFamily=Lucida Console;fontStyle=1" edge="1" parent="WIyWlLk6GJQsqaUBKTNV-1" source="5Ex3gswjyF0wNmUI7whT-33" target="5Ex3gswjyF0wNmUI7whT-35">
          <mxGeometry relative="1" as="geometry" />
        </mxCell>
        <mxCell id="5Ex3gswjyF0wNmUI7whT-38" value="YES" style="edgeLabel;html=1;align=center;verticalAlign=middle;resizable=0;points=[];fontSize=12;fontFamily=Lucida Console;fontStyle=1" vertex="1" connectable="0" parent="5Ex3gswjyF0wNmUI7whT-36">
          <mxGeometry x="-0.05" relative="1" as="geometry">
            <mxPoint as="offset" />
          </mxGeometry>
        </mxCell>
        <mxCell id="5Ex3gswjyF0wNmUI7whT-39" style="edgeStyle=orthogonalEdgeStyle;rounded=0;orthogonalLoop=1;jettySize=auto;html=1;exitX=1;exitY=0.5;exitDx=0;exitDy=0;entryX=1;entryY=0.5;entryDx=0;entryDy=0;fontSize=12;startSize=8;endSize=8;fontFamily=Lucida Console;fontStyle=1" edge="1" parent="WIyWlLk6GJQsqaUBKTNV-1" source="5Ex3gswjyF0wNmUI7whT-33" target="5Ex3gswjyF0wNmUI7whT-23">
          <mxGeometry relative="1" as="geometry">
            <Array as="points">
              <mxPoint x="500" y="710" />
              <mxPoint x="500" y="910" />
            </Array>
          </mxGeometry>
        </mxCell>
        <mxCell id="5Ex3gswjyF0wNmUI7whT-40" value="NO" style="edgeLabel;html=1;align=center;verticalAlign=middle;resizable=0;points=[];fontSize=12;fontFamily=Lucida Console;fontStyle=1" vertex="1" connectable="0" parent="5Ex3gswjyF0wNmUI7whT-39">
          <mxGeometry x="-0.8857" y="-2" relative="1" as="geometry">
            <mxPoint as="offset" />
          </mxGeometry>
        </mxCell>
        <mxCell id="5Ex3gswjyF0wNmUI7whT-33" value="Is episode?" style="rhombus;whiteSpace=wrap;html=1;fontFamily=Lucida Console;fontStyle=1" vertex="1" parent="WIyWlLk6GJQsqaUBKTNV-1">
          <mxGeometry x="320" y="680" width="140" height="60" as="geometry" />
        </mxCell>
        <mxCell id="5Ex3gswjyF0wNmUI7whT-37" value="" style="edgeStyle=none;curved=1;rounded=0;orthogonalLoop=1;jettySize=auto;html=1;fontSize=12;startSize=8;endSize=8;fontFamily=Lucida Console;fontStyle=1" edge="1" parent="WIyWlLk6GJQsqaUBKTNV-1" source="5Ex3gswjyF0wNmUI7whT-35" target="5Ex3gswjyF0wNmUI7whT-23">
          <mxGeometry relative="1" as="geometry" />
        </mxCell>
        <mxCell id="5Ex3gswjyF0wNmUI7whT-35" value="get series id from tvdb" style="whiteSpace=wrap;html=1;rounded=1;fontFamily=Lucida Console;fontStyle=1" vertex="1" parent="WIyWlLk6GJQsqaUBKTNV-1">
          <mxGeometry x="320" y="780" width="140" height="60" as="geometry" />
        </mxCell>
        <mxCell id="5Ex3gswjyF0wNmUI7whT-44" value="" style="edgeStyle=none;curved=1;rounded=0;orthogonalLoop=1;jettySize=auto;html=1;fontSize=12;startSize=8;endSize=8;fontFamily=Lucida Console;fontStyle=1" edge="1" parent="WIyWlLk6GJQsqaUBKTNV-1" source="5Ex3gswjyF0wNmUI7whT-41" target="5Ex3gswjyF0wNmUI7whT-43">
          <mxGeometry relative="1" as="geometry" />
        </mxCell>
        <mxCell id="5Ex3gswjyF0wNmUI7whT-48" value="" style="edgeStyle=none;curved=1;rounded=0;orthogonalLoop=1;jettySize=auto;html=1;fontSize=12;startSize=8;endSize=8;" edge="1" parent="WIyWlLk6GJQsqaUBKTNV-1" source="5Ex3gswjyF0wNmUI7whT-41" target="5Ex3gswjyF0wNmUI7whT-47">
          <mxGeometry relative="1" as="geometry" />
        </mxCell>
        <mxCell id="5Ex3gswjyF0wNmUI7whT-41" value="Get caption" style="whiteSpace=wrap;html=1;rounded=1;fontFamily=Lucida Console;fontStyle=1" vertex="1" parent="WIyWlLk6GJQsqaUBKTNV-1">
          <mxGeometry x="70" y="990" width="120" height="60" as="geometry" />
        </mxCell>
        <mxCell id="5Ex3gswjyF0wNmUI7whT-46" value="" style="edgeStyle=none;curved=1;rounded=0;orthogonalLoop=1;jettySize=auto;html=1;fontSize=12;startSize=8;endSize=8;fontFamily=Lucida Console;fontStyle=1" edge="1" parent="WIyWlLk6GJQsqaUBKTNV-1" source="5Ex3gswjyF0wNmUI7whT-43" target="5Ex3gswjyF0wNmUI7whT-45">
          <mxGeometry relative="1" as="geometry" />
        </mxCell>
        <mxCell id="5Ex3gswjyF0wNmUI7whT-50" value="" style="edgeStyle=none;curved=1;rounded=0;orthogonalLoop=1;jettySize=auto;html=1;fontSize=12;startSize=8;endSize=8;" edge="1" parent="WIyWlLk6GJQsqaUBKTNV-1" source="5Ex3gswjyF0wNmUI7whT-43" target="5Ex3gswjyF0wNmUI7whT-49">
          <mxGeometry relative="1" as="geometry" />
        </mxCell>
        <mxCell id="5Ex3gswjyF0wNmUI7whT-43" value="Get poster url" style="whiteSpace=wrap;html=1;rounded=1;fontFamily=Lucida Console;fontStyle=1" vertex="1" parent="WIyWlLk6GJQsqaUBKTNV-1">
          <mxGeometry x="70" y="1100" width="120" height="60" as="geometry" />
        </mxCell>
        <mxCell id="5Ex3gswjyF0wNmUI7whT-52" value="" style="edgeStyle=none;curved=1;rounded=0;orthogonalLoop=1;jettySize=auto;html=1;fontSize=12;startSize=8;endSize=8;" edge="1" parent="WIyWlLk6GJQsqaUBKTNV-1" source="5Ex3gswjyF0wNmUI7whT-45" target="5Ex3gswjyF0wNmUI7whT-51">
          <mxGeometry relative="1" as="geometry" />
        </mxCell>
        <mxCell id="5Ex3gswjyF0wNmUI7whT-45" value="Sent to tg bot" style="whiteSpace=wrap;html=1;rounded=1;fontFamily=Lucida Console;fontStyle=1" vertex="1" parent="WIyWlLk6GJQsqaUBKTNV-1">
          <mxGeometry x="70" y="1210" width="120" height="60" as="geometry" />
        </mxCell>
        <mxCell id="5Ex3gswjyF0wNmUI7whT-47" value="If failed, send origin info from Emby" style="whiteSpace=wrap;html=1;fontFamily=Lucida Console;rounded=1;fontStyle=1;" vertex="1" parent="WIyWlLk6GJQsqaUBKTNV-1">
          <mxGeometry x="310" y="990" width="150" height="60" as="geometry" />
        </mxCell>
        <mxCell id="5Ex3gswjyF0wNmUI7whT-49" value="If failed, only send text message" style="whiteSpace=wrap;html=1;fontFamily=Lucida Console;rounded=1;fontStyle=1;" vertex="1" parent="WIyWlLk6GJQsqaUBKTNV-1">
          <mxGeometry x="310" y="1100" width="150" height="60" as="geometry" />
        </mxCell>
        <mxCell id="5Ex3gswjyF0wNmUI7whT-51" value="If failed, print error logs, finish this task and continue the next" style="whiteSpace=wrap;html=1;fontFamily=Lucida Console;rounded=1;fontStyle=1;" vertex="1" parent="WIyWlLk6GJQsqaUBKTNV-1">
          <mxGeometry x="310" y="1202.5" width="150" height="75" as="geometry" />
        </mxCell>
      </root>
    </mxGraphModel>
  </diagram>
</mxfile>
